<mxfile host="app.diagrams.net" modified="2023-10-23T18:22:41.956Z" agent="Mozilla/5.0 (Windows NT 10.0; Win64; x64) AppleWebKit/537.36 (KHTML, like Gecko) Chrome/118.0.0.0 Safari/537.36" etag="6SB9IUYegJPH7AYhb9t3" version="22.0.6" type="google">
  <diagram name="Страница — 1" id="2D-zRHizvhMx-MmYtyQY">
    <mxGraphModel grid="1" page="1" gridSize="10" guides="1" tooltips="1" connect="1" arrows="1" fold="1" pageScale="1" pageWidth="827" pageHeight="1169" math="0" shadow="0">
      <root>
        <mxCell id="0" />
        <mxCell id="1" parent="0" />
        <mxCell id="k2s1_3U7AdrUQbt052R2-3" value="" style="edgeStyle=orthogonalEdgeStyle;rounded=0;orthogonalLoop=1;jettySize=auto;html=1;" edge="1" parent="1" source="k2s1_3U7AdrUQbt052R2-1" target="k2s1_3U7AdrUQbt052R2-2">
          <mxGeometry relative="1" as="geometry" />
        </mxCell>
        <mxCell id="k2s1_3U7AdrUQbt052R2-1" value="start" style="ellipse;whiteSpace=wrap;html=1;fillColor=#dae8fc;strokeColor=#6c8ebf;" vertex="1" parent="1">
          <mxGeometry x="340" y="10" width="120" height="80" as="geometry" />
        </mxCell>
        <mxCell id="k2s1_3U7AdrUQbt052R2-7" value="" style="edgeStyle=orthogonalEdgeStyle;rounded=0;orthogonalLoop=1;jettySize=auto;html=1;" edge="1" parent="1" source="k2s1_3U7AdrUQbt052R2-2" target="k2s1_3U7AdrUQbt052R2-6">
          <mxGeometry relative="1" as="geometry" />
        </mxCell>
        <mxCell id="k2s1_3U7AdrUQbt052R2-2" value="count = 0&lt;br&gt;distance = 10000&lt;br&gt;first_friend_speed = 1&lt;br&gt;second_friend_speed = 2&lt;br&gt;dog_speed = 5&lt;br&gt;frend = 2" style="whiteSpace=wrap;html=1;" vertex="1" parent="1">
          <mxGeometry x="310" y="120" width="180" height="110" as="geometry" />
        </mxCell>
        <mxCell id="k2s1_3U7AdrUQbt052R2-9" value="" style="edgeStyle=orthogonalEdgeStyle;rounded=0;orthogonalLoop=1;jettySize=auto;html=1;" edge="1" parent="1" source="k2s1_3U7AdrUQbt052R2-6">
          <mxGeometry relative="1" as="geometry">
            <mxPoint x="400" y="410" as="targetPoint" />
          </mxGeometry>
        </mxCell>
        <mxCell id="k2s1_3U7AdrUQbt052R2-10" value="yes" style="edgeLabel;html=1;align=center;verticalAlign=middle;resizable=0;points=[];" connectable="0" vertex="1" parent="k2s1_3U7AdrUQbt052R2-9">
          <mxGeometry x="-0.24" y="2" relative="1" as="geometry">
            <mxPoint as="offset" />
          </mxGeometry>
        </mxCell>
        <mxCell id="k2s1_3U7AdrUQbt052R2-23" value="" style="edgeStyle=orthogonalEdgeStyle;rounded=0;orthogonalLoop=1;jettySize=auto;html=1;" edge="1" parent="1" source="k2s1_3U7AdrUQbt052R2-6" target="k2s1_3U7AdrUQbt052R2-22">
          <mxGeometry relative="1" as="geometry" />
        </mxCell>
        <mxCell id="k2s1_3U7AdrUQbt052R2-26" value="no" style="edgeLabel;html=1;align=center;verticalAlign=middle;resizable=0;points=[];" connectable="0" vertex="1" parent="k2s1_3U7AdrUQbt052R2-23">
          <mxGeometry x="-0.15" y="2" relative="1" as="geometry">
            <mxPoint as="offset" />
          </mxGeometry>
        </mxCell>
        <mxCell id="k2s1_3U7AdrUQbt052R2-6" value="distance &amp;gt; 10" style="rhombus;whiteSpace=wrap;html=1;" vertex="1" parent="1">
          <mxGeometry x="350" y="280" width="100" height="80" as="geometry" />
        </mxCell>
        <mxCell id="k2s1_3U7AdrUQbt052R2-13" value="" style="edgeStyle=orthogonalEdgeStyle;rounded=0;orthogonalLoop=1;jettySize=auto;html=1;" edge="1" parent="1" source="k2s1_3U7AdrUQbt052R2-11" target="k2s1_3U7AdrUQbt052R2-12">
          <mxGeometry relative="1" as="geometry" />
        </mxCell>
        <mxCell id="k2s1_3U7AdrUQbt052R2-14" value="yes" style="edgeLabel;html=1;align=center;verticalAlign=middle;resizable=0;points=[];" connectable="0" vertex="1" parent="k2s1_3U7AdrUQbt052R2-13">
          <mxGeometry x="-0.3" y="-5" relative="1" as="geometry">
            <mxPoint as="offset" />
          </mxGeometry>
        </mxCell>
        <mxCell id="k2s1_3U7AdrUQbt052R2-16" value="" style="edgeStyle=orthogonalEdgeStyle;rounded=0;orthogonalLoop=1;jettySize=auto;html=1;" edge="1" parent="1" source="k2s1_3U7AdrUQbt052R2-11" target="k2s1_3U7AdrUQbt052R2-15">
          <mxGeometry relative="1" as="geometry" />
        </mxCell>
        <mxCell id="k2s1_3U7AdrUQbt052R2-17" value="no" style="edgeLabel;html=1;align=center;verticalAlign=middle;resizable=0;points=[];" connectable="0" vertex="1" parent="k2s1_3U7AdrUQbt052R2-16">
          <mxGeometry x="-0.05" relative="1" as="geometry">
            <mxPoint x="-1" y="-3" as="offset" />
          </mxGeometry>
        </mxCell>
        <mxCell id="k2s1_3U7AdrUQbt052R2-11" value="frind = 1" style="rhombus;whiteSpace=wrap;html=1;" vertex="1" parent="1">
          <mxGeometry x="350" y="410" width="100" height="80" as="geometry" />
        </mxCell>
        <mxCell id="k2s1_3U7AdrUQbt052R2-19" style="edgeStyle=orthogonalEdgeStyle;rounded=0;orthogonalLoop=1;jettySize=auto;html=1;entryX=1;entryY=0.5;entryDx=0;entryDy=0;" edge="1" parent="1" source="k2s1_3U7AdrUQbt052R2-12" target="k2s1_3U7AdrUQbt052R2-18">
          <mxGeometry relative="1" as="geometry" />
        </mxCell>
        <mxCell id="k2s1_3U7AdrUQbt052R2-12" value="time = distance / (first_friend_speed&amp;nbsp;+ dog_speed)&lt;br&gt;friend = 2" style="whiteSpace=wrap;html=1;" vertex="1" parent="1">
          <mxGeometry x="500" y="420" width="270" height="60" as="geometry" />
        </mxCell>
        <mxCell id="k2s1_3U7AdrUQbt052R2-20" style="edgeStyle=orthogonalEdgeStyle;rounded=0;orthogonalLoop=1;jettySize=auto;html=1;entryX=0.5;entryY=0;entryDx=0;entryDy=0;" edge="1" parent="1" source="k2s1_3U7AdrUQbt052R2-15" target="k2s1_3U7AdrUQbt052R2-18">
          <mxGeometry relative="1" as="geometry" />
        </mxCell>
        <mxCell id="k2s1_3U7AdrUQbt052R2-15" value="time = distance / (second_friend_speed&amp;nbsp;+ dog_speed)&lt;br&gt;friend = 1" style="whiteSpace=wrap;html=1;" vertex="1" parent="1">
          <mxGeometry x="280" y="530" width="240" height="60" as="geometry" />
        </mxCell>
        <mxCell id="k2s1_3U7AdrUQbt052R2-21" style="edgeStyle=orthogonalEdgeStyle;rounded=0;orthogonalLoop=1;jettySize=auto;html=1;entryX=0;entryY=0.5;entryDx=0;entryDy=0;exitX=0;exitY=0.5;exitDx=0;exitDy=0;" edge="1" parent="1" source="k2s1_3U7AdrUQbt052R2-18" target="k2s1_3U7AdrUQbt052R2-6">
          <mxGeometry relative="1" as="geometry">
            <Array as="points">
              <mxPoint x="40" y="673" />
              <mxPoint x="40" y="320" />
            </Array>
          </mxGeometry>
        </mxCell>
        <mxCell id="k2s1_3U7AdrUQbt052R2-18" value="distance = distance&amp;nbsp;- (first_friend_speed + second_friend_speed)&lt;br&gt;count = count + 1" style="rounded=0;whiteSpace=wrap;html=1;" vertex="1" parent="1">
          <mxGeometry x="280" y="630" width="240" height="85" as="geometry" />
        </mxCell>
        <mxCell id="k2s1_3U7AdrUQbt052R2-25" value="" style="edgeStyle=orthogonalEdgeStyle;rounded=0;orthogonalLoop=1;jettySize=auto;html=1;" edge="1" parent="1" source="k2s1_3U7AdrUQbt052R2-22" target="k2s1_3U7AdrUQbt052R2-24">
          <mxGeometry relative="1" as="geometry" />
        </mxCell>
        <mxCell id="k2s1_3U7AdrUQbt052R2-22" value="count" style="shape=document;whiteSpace=wrap;html=1;boundedLbl=1;" vertex="1" parent="1">
          <mxGeometry x="520" y="280" width="120" height="80" as="geometry" />
        </mxCell>
        <mxCell id="k2s1_3U7AdrUQbt052R2-24" value="end" style="ellipse;whiteSpace=wrap;html=1;fillColor=#dae8fc;strokeColor=#6c8ebf;" vertex="1" parent="1">
          <mxGeometry x="690" y="280" width="80" height="80" as="geometry" />
        </mxCell>
      </root>
    </mxGraphModel>
  </diagram>
</mxfile>
